<?xml version="1.0" encoding="utf-8"?>
<!-- Generator: Adobe Illustrator 22.1.0, SVG Export Plug-In . SVG Version: 6.00 Build 0)  -->
<svg version="1.1" id="Layer_1" xmlns="http://www.w3.org/2000/svg" xmlns:xlink="http://www.w3.org/1999/xlink" x="0px" y="0px"
	 viewBox="0 0 14 14" style="enable-background:new 0 0 14 14;" xml:space="preserve">
<style type="text/css">
	.st0{fill:#FFFFFF;}
</style>
<path class="st0" d="M6.3,8.1L6.3,8.1L4.8,9.6C4.7,9.7,4.6,9.8,4.5,10c-0.2,0.4-0.1,1,0.2,1.3c0.2,0.3,0.6,0.4,1,0.4
	c0.3,0,0.6-0.2,0.8-0.4l1.9-1.9l1.8-1.7c0.1-0.1,0.1-0.2,0.2-0.3c0.1-0.2,0.1-0.4,0.1-0.6c0-0.2-0.1-0.4-0.2-0.6
	c-0.1-0.2-0.3-0.3-0.4-0.5L6.3,2.4C6.1,2.1,5.7,2,5.3,2.1C5,2.1,4.8,2.3,4.6,2.5C4.4,2.7,4.4,2.9,4.3,3.2c0,0.4,0.1,0.7,0.4,1
	l1.5,1.5l0.1,0.1H1C0.7,5.8,0.5,6,0.3,6.2C0,6.5-0.1,6.8,0,7.2c0.1,0.2,0.2,0.5,0.4,0.6C0.6,8,0.9,8.1,1.2,8.1L6.3,8.1L6.3,8.1z
	 M11.6,7V11c0,0.2-0.1,0.4-0.3,0.5c-0.1,0.1-0.3,0.1-0.4,0.1H9.6C9.4,11.6,9.1,11.8,9,12c-0.4,0.5-0.3,1.2,0.2,1.6c0,0,0,0,0,0
	c0.2,0.2,0.4,0.2,0.7,0.2h1c0.2,0,0.4,0,0.7,0c0.3,0,0.5-0.1,0.7-0.2c0.2-0.1,0.4-0.3,0.6-0.4c0.3-0.2,0.5-0.5,0.7-0.9
	C13.9,12,14,11.5,14,11V2.8c0-0.3-0.1-0.6-0.3-0.9c-0.2-0.4-0.5-0.8-0.9-1.1c-0.5-0.4-1.2-0.6-1.8-0.6H9.7C9.4,0.2,9.2,0.4,9,0.6
	C8.8,0.7,8.7,1,8.7,1.3c0,0.2,0.1,0.5,0.2,0.7c0.2,0.4,0.6,0.6,1,0.6h1.2c0.3,0,0.5,0.3,0.6,0.6L11.6,7L11.6,7z"/>
<path class="st0" d="M6.3,8.1H1.2C0.9,8.1,0.6,8,0.4,7.8C0.2,7.7,0.1,7.4,0,7.2c-0.1-0.4,0-0.7,0.2-1C0.5,6,0.7,5.8,1,5.7h5.3
	L6.3,5.7L4.7,4.2c-0.3-0.3-0.4-0.6-0.4-1c0-0.2,0.1-0.5,0.3-0.7C4.8,2.3,5,2.1,5.3,2.1c0.4-0.1,0.7,0,1,0.3l3.5,3.4
	c0.2,0.2,0.3,0.3,0.4,0.5c0.1,0.2,0.2,0.4,0.2,0.6c0,0.2,0,0.4-0.1,0.6c-0.1,0.1-0.1,0.2-0.2,0.3L8.4,9.4l-1.9,1.9
	c-0.2,0.2-0.5,0.4-0.8,0.4c-0.4,0-0.7-0.1-1-0.4c-0.3-0.4-0.4-0.9-0.2-1.3c0.1-0.1,0.1-0.2,0.2-0.3L6.3,8.1L6.3,8.1L6.3,8.1z"/>
<path class="st0" d="M11.6,7V3.1c0-0.3-0.2-0.5-0.5-0.6H9.9c-0.4,0-0.8-0.2-1-0.6C8.7,1.8,8.7,1.5,8.7,1.3c0-0.3,0.2-0.6,0.4-0.8
	c0.2-0.2,0.4-0.3,0.7-0.4h1.3c0.7,0,1.3,0.2,1.8,0.6c0.4,0.3,0.7,0.6,0.9,1C13.9,2.1,14,2.4,14,2.7v8.2c0,0.5-0.1,1-0.4,1.4
	c-0.2,0.3-0.4,0.6-0.7,0.9c-0.2,0.2-0.4,0.3-0.6,0.4c-0.2,0.1-0.5,0.2-0.7,0.2c-0.2,0-0.4,0-0.7,0h-1c-0.3,0-0.5-0.1-0.7-0.2
	C8.7,13.2,8.6,12.5,9,12c0.2-0.2,0.4-0.4,0.7-0.4h1.3c0.1,0,0.3,0,0.4-0.1c0.2-0.1,0.3-0.3,0.3-0.5L11.6,7L11.6,7z"/>
</svg>
