<svg id="Layer_1" xmlns="http://www.w3.org/2000/svg" viewBox="0 0 14 14"><style>.st0{fill:#fff}</style><path class="st0" d="M6.3 8.1L4.8 9.6c-.1.1-.2.2-.3.4-.2.4-.1 1 .2 1.3.2.3.6.4 1 .4.3 0 .6-.2.8-.4l1.9-1.9 1.8-1.7c.1-.1.1-.2.2-.3.1-.2.1-.4.1-.6 0-.2-.1-.4-.2-.6-.1-.2-.3-.3-.4-.5L6.3 2.4c-.2-.3-.6-.4-1-.3-.3 0-.5.2-.7.4-.2.2-.2.4-.3.7 0 .4.1.7.4 1l1.5 1.5.1.1H1c-.3 0-.5.2-.7.4-.3.3-.4.6-.3 1 .1.2.2.5.4.6.2.2.5.3.8.3h5.1zM11.6 7v4c0 .2-.1.4-.3.5-.1.1-.3.1-.4.1H9.6c-.2 0-.5.2-.6.4-.4.5-.3 1.2.2 1.6.2.2.4.2.7.2h1.7c.3 0 .5-.1.7-.2.2-.1.4-.3.6-.4.3-.2.5-.5.7-.9.3-.3.4-.8.4-1.3V2.8c0-.3-.1-.6-.3-.9-.2-.4-.5-.8-.9-1.1-.5-.4-1.2-.6-1.8-.6H9.7c-.3 0-.5.2-.7.4-.2.1-.3.4-.3.7 0 .2.1.5.2.7.2.4.6.6 1 .6h1.2c.3 0 .5.3.6.6L11.6 7z"/><path class="st0" d="M6.3 8.1H1.2c-.3 0-.6-.1-.8-.3-.2-.1-.3-.4-.4-.6-.1-.4 0-.7.2-1 .3-.2.5-.4.8-.5h5.3L4.7 4.2c-.3-.3-.4-.6-.4-1 0-.2.1-.5.3-.7.2-.2.4-.4.7-.4.4-.1.7 0 1 .3l3.5 3.4c.2.2.3.3.4.5.1.2.2.4.2.6 0 .2 0 .4-.1.6-.1.1-.1.2-.2.3L8.4 9.4l-1.9 1.9c-.2.2-.5.4-.8.4-.4 0-.7-.1-1-.4-.3-.4-.4-.9-.2-1.3.1-.1.1-.2.2-.3l1.6-1.6z"/><path class="st0" d="M11.6 7V3.1c0-.3-.2-.5-.5-.6H9.9c-.4 0-.8-.2-1-.6-.2-.1-.2-.4-.2-.6 0-.3.2-.6.4-.8.2-.2.4-.3.7-.4h1.3c.7 0 1.3.2 1.8.6.4.3.7.6.9 1 .1.4.2.7.2 1v8.2c0 .5-.1 1-.4 1.4-.2.3-.4.6-.7.9-.2.2-.4.3-.6.4-.2.1-.5.2-.7.2H9.9c-.3 0-.5-.1-.7-.2-.5-.4-.6-1.1-.2-1.6.2-.2.4-.4.7-.4H11c.1 0 .3 0 .4-.1.2-.1.3-.3.3-.5l-.1-4z"/></svg>