<svg xmlns="http://www.w3.org/2000/svg" viewBox="0 0 27.8 16.2"><path d="M26.4 14l-.1-.2c-.7-1.1-1.6-2.1-2.6-3-.6-.6-1-.9-1.1-1.1-.3-.3-.4-.8-.2-1.2.3-.6.8-1.2 1.2-1.8l.9-1.2c1.6-2.1 2.2-3.4 2-4l-.1-.1c-.1-.1-.2-.2-.4-.2-.3-.1-.6-.1-.9 0h-4.5c-.1 0-.1.1-.2.1-.1.1-.1.2-.1.2-.4 1.1-.9 2.1-1.5 3.1-.3.6-.6 1.1-.9 1.5-.2.3-.5.6-.7.9l-.5.5c-.2.1-.3.2-.4.2l-.2-.1-.3-.3c-.1-.2-.1-.3-.2-.5V1.4c0-.2-.1-.3-.1-.4-.1-.1-.2-.3-.3-.3-.1-.1-.3-.1-.5-.2-.6-.1-1.2-.1-1.8 0-1.1-.1-2.2 0-3.3.3-.1.1-.3.2-.5.4-.1.2-.1.3 0 .3.5 0 .9.2 1.2.6l.1.2c.1.2.2.4.2.6.1.3.1.7.1 1v1.7c0 .5-.1.8-.1 1.1 0 .2-.1.4-.2.6 0 .1-.1.2-.2.3l-.1.1c-.1 0-.2.1-.4.1s-.3-.1-.5-.2-.3-.3-.5-.5c-.3-.3-.5-.6-.7-.9-.2-.4-.5-.9-.7-1.5L7 4.3c-.1-.2-.3-.6-.5-1.1s-.5-.9-.6-1.4c-.1-.2-.2-.3-.4-.5-.1 0-.2-.1-.3-.1-.1-.1-.2-.1-.3-.1H1.1c-.3 0-.6.1-.8.3v.2c0 .1 0 .3.1.4.5 1.3 1.1 2.5 1.8 3.7s1.2 2.2 1.7 2.9l1.5 2.1c.5.7.9 1.1 1 1.2l.4.4.2.4c.3.3.7.5 1 .8.5.3.9.6 1.4.9.6.3 1.2.6 1.8.7.7.2 1.3.3 2 .2h1.6c.3 0 .5-.1.7-.3l.1-.1c0-.1.1-.2.1-.3v-.4c0-.4 0-.7.1-1.1 0-.2.1-.5.2-.7.1-.1.2-.3.3-.4l.2-.2h.1c.3-.1.6 0 .8.2.3.2.6.5.8.8.3.3.6.7.9 1.1.3.3.6.6 1 .9l.3.2c.2.1.5.2.7.3s.5.1.8.1l3.5-.1c.3 0 .6 0 .8-.2.2-.1.3-.2.3-.4v-.5c.1.1.1 0-.1-.2z" fill="#fff"/></svg>